<svg xmlns="http://www.w3.org/2000/svg" viewBox="0 0 233.66 220.29"><title>hurja_shop_logo</title><path d="M116.83,218.88a11.61,11.61,0,0,1-5.83-1.57L7.24,157.41a11.69,11.69,0,0,1-5.82-10.09V73a11.71,11.71,0,0,1,5.82-10.1L111,3a11.67,11.67,0,0,1,11.66,0l103.75,59.9A11.7,11.7,0,0,1,232.24,73v74.34a11.68,11.68,0,0,1-5.83,10.09l-103.75,59.9A11.61,11.61,0,0,1,116.83,218.88Z" style="fill:#e9463e"/><path d="M116.83,2.83A10.2,10.2,0,0,1,122,4.21l103.76,59.9A10.25,10.25,0,0,1,230.82,73v74.35a10.25,10.25,0,0,1-5.11,8.86L122,216.09a10.25,10.25,0,0,1-10.24,0L8,156.18a10.26,10.26,0,0,1-5.12-8.86V73A10.26,10.26,0,0,1,8,64.11L111.71,4.21a10.17,10.17,0,0,1,5.12-1.38m0-2.83a13.18,13.18,0,0,0-6.54,1.75L6.53,61.66A13.09,13.09,0,0,0,0,73v74.35a13.11,13.11,0,0,0,6.53,11.32l103.76,59.9a13.08,13.08,0,0,0,13.07,0l103.76-59.9a13.12,13.12,0,0,0,6.54-11.32V73a13.1,13.1,0,0,0-6.54-11.31L123.36,1.75A13.12,13.12,0,0,0,116.83,0Z" style="fill:#fff"/><path d="M116.83,2.83A10.2,10.2,0,0,1,122,4.21l103.76,59.9A10.25,10.25,0,0,1,230.82,73v74.35a10.25,10.25,0,0,1-5.11,8.86L122,216.09a10.25,10.25,0,0,1-10.24,0L8,156.18a10.26,10.26,0,0,1-5.12-8.86V73A10.26,10.26,0,0,1,8,64.11L111.71,4.21a10.17,10.17,0,0,1,5.12-1.38m0-2.83a13.18,13.18,0,0,0-6.54,1.75L6.53,61.66A13.09,13.09,0,0,0,0,73v74.35a13.11,13.11,0,0,0,6.53,11.32l103.76,59.9a13.08,13.08,0,0,0,13.07,0l103.76-59.9a13.12,13.12,0,0,0,6.54-11.32V73a13.1,13.1,0,0,0-6.54-11.31L123.36,1.75A13.12,13.12,0,0,0,116.83,0Z" style="fill:#fff"/><path d="M37.83,125.6q0,5.25,7.58,5.25T53,126.13A4.72,4.72,0,0,0,50.4,122a25.11,25.11,0,0,0-6.29-2.67q-3.69-1.06-7.39-2.47a15.52,15.52,0,0,1-6.28-4.42A11.1,11.1,0,0,1,27.85,105q0-19.11,24.61-19.12,9,0,13.59,3.39a11,11,0,0,1,4.61,9.41,15.54,15.54,0,0,1-.57,4.23,9.39,9.39,0,0,1-1.18,2.85l-.61.92H54.82a6.17,6.17,0,0,0,1.67-4.42q0-5-6.47-4.95-8.16,0-8.15,5.18a4.6,4.6,0,0,0,2.59,4.11,22.36,22.36,0,0,0,6.28,2.4q3.69.89,7.43,2.17a14.44,14.44,0,0,1,6.32,4.31,11.54,11.54,0,0,1,2.59,7.81q0,9.67-5.79,14.36t-17.82,4.68q-12,0-16.46-4.26-3.27-3.21-3.27-8.84a26.59,26.59,0,0,1,.45-4.65l.23-1.22H38.13l-.15.92A7.14,7.14,0,0,0,37.83,125.6Z" style="fill:#fff"/><path d="M120.49,86.36l-9.6,54.86H97.1l3.5-19.81H85.75l-3.43,19.81H68.53l9.68-54.86H91.92L87.8,109.52h14.86l4.11-23.16Z" style="fill:#fff"/><path d="M147.15,85.83q18.36,0,18.36,15a30.42,30.42,0,0,1-.53,5.41l-2.67,15.23q-1.83,10.59-7.92,15.7t-17.14,5.1q-11.06,0-15.39-5.1-3-3.51-3-9.68a32.83,32.83,0,0,1,.61-6l2.66-15.23Q125.75,85.84,147.15,85.83Zm-7.85,44.64a9,9,0,0,0,6.1-2c1.52-1.32,2.59-3.75,3.2-7.31l2.59-14.63a19,19,0,0,0,.23-2.74q0-6.16-6.25-6.17-7.84.15-9.37,8.91l-2.59,14.63a24.25,24.25,0,0,0-.31,4C132.9,128.7,135,130.47,139.3,130.47Z" style="fill:#fff"/><path d="M189.74,124.53h-9.07l-3,16.69H164l9.67-54.86H196.9q8.61,0,12.26,4a11.35,11.35,0,0,1,2.67,7.77,19.93,19.93,0,0,1-.3,3.35L210,110.06a16.17,16.17,0,0,1-6.7,10.4A22.36,22.36,0,0,1,189.74,124.53Zm2.36-26.28h-6.86l-2.51,14.4h6.78q6.24,0,7.23-5.56l.54-3.13a8.81,8.81,0,0,0,.15-1.83,4.08,4.08,0,0,0-1.14-2.51C195.53,98.71,194.13,98.25,192.1,98.25Z" style="fill:#fff"/><polygon points="85.57 72.27 47.06 72.27 47.93 70.8 86.44 70.8 85.57 72.27" style="fill:#ece6e1"/><polygon points="185.73 72.27 147.22 72.27 148.09 70.8 186.59 70.8 185.73 72.27" style="fill:#ece6e1"/><polyline points="186.59 154.25 47.89 154.25 47.02 155.72 185.73 155.72" style="fill:#ece6e1"/><path d="M129.2,64.91a2.28,2.28,0,0,0,1.07.24,3.94,3.94,0,0,0,1.55-.35,2.33,2.33,0,0,0,1.25-1.15,1.14,1.14,0,0,0,.11-.45.84.84,0,0,0-.49-.77,2.23,2.23,0,0,0-1.09-.27,3.67,3.67,0,0,0-1.57.37,2.41,2.41,0,0,0-1.25,1.12,1.18,1.18,0,0,0-.11.48.89.89,0,0,0,.53.78" style="fill:#fff"/><path d="M142.12,72a4.83,4.83,0,0,1-1.54,1.62,3.56,3.56,0,0,1-2,.86c-.26,0-.4-.12-.4-.35a1.13,1.13,0,0,1,.11-.43c.73-1.63,1.27-2.86,1.63-3.68l1.17-2.64h-2.45l-.24.54a2.39,2.39,0,0,0-2-.89,4.94,4.94,0,0,0-3.37,1.47,9.16,9.16,0,0,0-2.16,3.1l-.37.82A9.94,9.94,0,0,0,130,74a2.87,2.87,0,0,1-1.37.46c-.27,0-.4-.12-.4-.35a1.23,1.23,0,0,1,.1-.43l2.49-5.57-3-1.63-2.53,5.67a5.06,5.06,0,0,1-1.44,1.48,3.56,3.56,0,0,1-2,.85c-.27,0-.4-.11-.4-.34a1.09,1.09,0,0,1,.11-.43l1.17-2.67a.63.63,0,0,0,.08-.32,1.23,1.23,0,0,0-.61-1.15l-5.71-3.22-3.48,7.92a2.34,2.34,0,0,1-.82.19c-.27,0-.4-.12-.4-.35a1.13,1.13,0,0,1,.11-.43l2.45-5.57-3-1.63L108,74.33c-.28.67-.61,1-1,1-.21,0-.32-.12-.32-.37a1.92,1.92,0,0,1,.19-.78l3-6.8h-3.47l-2.25,5c-.16.37-.3.71-.42,1l-.35.27a3.81,3.81,0,0,1-2.06.86c-.17,0-.26-.06-.26-.18a.93.93,0,0,1,0-.14l6.54-14.65h-3.85l-3.43,7.69H97.44l2.33-5.23a2.59,2.59,0,0,0,.24-1c0-1-1.07-1.45-3.21-1.45H90.32c-.48,0-.72.27-.72.79s.21.76.64.76h4.62a1,1,0,0,1,.58.23.65.65,0,0,1,.3.5.48.48,0,0,1,0,.18L89.09,76.94h4.06l3.71-8.32h2.88L97,74.68a1.48,1.48,0,0,0-.18.69,1.38,1.38,0,0,0,.55,1.12,1.91,1.91,0,0,0,1.26.45,8.46,8.46,0,0,0,4.06-1.22l.68-.41c.13,1.09,1.07,1.63,2.84,1.63a3.31,3.31,0,0,0,2.16-.8.88.88,0,0,0,1,.8,8.46,8.46,0,0,0,4.06-1.22,10.53,10.53,0,0,0,2.33-1.86A12.24,12.24,0,0,0,118.42,70c.2-.45.27-.4.48-.4a.81.81,0,0,1,.43.14.42.42,0,0,1,.21.34.25.25,0,0,1,0,.13l-1.86,4.17a2.7,2.7,0,0,0-.24,1.06c0,1,.56,1.52,1.68,1.52a6.29,6.29,0,0,0,1.12-.1,9.2,9.2,0,0,0-1,1.71,2.26,2.26,0,0,0-.24,1,1.54,1.54,0,0,0,.81,1.36,3.47,3.47,0,0,0,1.78.42,5.18,5.18,0,0,0,2.7-.74,4.65,4.65,0,0,0,2-2.17l.7-1.57a9.85,9.85,0,0,0,3-1.15c.27.86,1.18,1.28,2.74,1.28a3.25,3.25,0,0,0,2.16-.8.87.87,0,0,0,1,.8,8.46,8.46,0,0,0,4.06-1.22,6.58,6.58,0,0,0,3-2.78Zm-20,7a.61.61,0,0,1-.59.37c-.27,0-.4-.1-.4-.29a3,3,0,0,1,.8-1.45,3.21,3.21,0,0,1,1.28-1.14c-.49,1.12-.86,2-1.09,2.51m14.62-9.9-2.34,5.22c-.29.65-.62,1-1,1-.21,0-.31-.12-.31-.36a2,2,0,0,1,.16-.74l2.26-5.07a.8.8,0,0,1,.81-.53c.3,0,.46.11.46.34a.49.49,0,0,1-.06.17" style="fill:#fff"/></svg>